<svg width="134" height="25" viewBox="0 0 134 25" fill="none" xmlns="http://www.w3.org/2000/svg">
<path d="M10.8495 22.2187L1.69475 5.95565L20.0043 5.95565L10.8495 22.2187Z" fill="url(#paint0_linear_128_47)"/>
<path d="M30.845 20.9588C29.5241 20.9588 28.4719 20.6132 27.6886 19.922C26.9206 19.2309 26.5366 18.317 26.5366 17.1804C26.5366 16.0437 26.9053 15.1452 27.6425 14.4847C28.3951 13.8243 29.3858 13.4941 30.6146 13.4941H34.7847V12.0887C34.7847 11.1671 34.5236 10.4529 34.0014 9.94599C33.4945 9.43912 32.765 9.18569 31.8127 9.18569C30.9525 9.18569 30.2383 9.38536 29.67 9.78471C29.117 10.1841 28.7945 10.7216 28.7023 11.3975H27.1817C27.32 10.3223 27.8115 9.46216 28.6563 8.81706C29.5164 8.1566 30.5685 7.82637 31.8127 7.82637C33.1797 7.82637 34.2702 8.21035 35.0842 8.97833C35.8983 9.74631 36.3053 10.7754 36.3053 12.0656V20.7284H34.8078V18.2171H34.5543L34.8999 17.8024C34.8999 18.7547 34.5313 19.5227 33.794 20.1064C33.0568 20.6747 32.0738 20.9588 30.845 20.9588ZM31.2367 19.6917C32.2965 19.6917 33.1489 19.4229 33.794 18.8853C34.4545 18.3477 34.7847 17.6565 34.7847 16.8117V14.7151H30.6146C29.8466 14.7151 29.2246 14.9302 28.7484 15.3602C28.2876 15.7903 28.0572 16.3586 28.0572 17.0652C28.0572 17.8639 28.3414 18.5013 28.9097 18.9774C29.4934 19.4536 30.269 19.6917 31.2367 19.6917Z" fill="white"/>
<path d="M40.9964 20.7284V8.05676H42.517V10.3377H43.0008L42.4248 11.2362C42.4248 10.1764 42.7397 9.34696 43.3694 8.74794C44.0145 8.13356 44.8824 7.82637 45.9729 7.82637C47.2324 7.82637 48.2384 8.22571 48.991 9.02441C49.7437 9.80775 50.12 10.8829 50.12 12.2499V20.7284H48.5994V12.4342C48.5994 11.3898 48.3306 10.5834 47.793 10.0151C47.2554 9.43144 46.5258 9.13961 45.6042 9.13961C44.652 9.13961 43.8993 9.43912 43.3464 10.0381C42.7934 10.6372 42.517 11.4666 42.517 12.5264V20.7284H40.9964Z" fill="white"/>
<path d="M58.4743 20.9588C57.1533 20.9588 56.1012 20.6132 55.3179 19.922C54.5499 19.2309 54.1659 18.317 54.1659 17.1804C54.1659 16.0437 54.5345 15.1452 55.2718 14.4847C56.0244 13.8243 57.0151 13.4941 58.2439 13.4941H62.414V12.0887C62.414 11.1671 62.1529 10.4529 61.6307 9.94599C61.1238 9.43912 60.3942 9.18569 59.4419 9.18569C58.5818 9.18569 57.8676 9.38536 57.2993 9.78471C56.7463 10.1841 56.4238 10.7216 56.3316 11.3975H54.811C54.9492 10.3223 55.4408 9.46216 56.2855 8.81706C57.1457 8.1566 58.1978 7.82637 59.4419 7.82637C60.8089 7.82637 61.8995 8.21035 62.7135 8.97833C63.5276 9.74631 63.9346 10.7754 63.9346 12.0656V20.7284H62.437V18.2171H62.1836L62.5292 17.8024C62.5292 18.7547 62.1606 19.5227 61.4233 20.1064C60.6861 20.6747 59.703 20.9588 58.4743 20.9588ZM58.8659 19.6917C59.9258 19.6917 60.7782 19.4229 61.4233 18.8853C62.0838 18.3477 62.414 17.6565 62.414 16.8117V14.7151H58.2439C57.4759 14.7151 56.8538 14.9302 56.3777 15.3602C55.9169 15.7903 55.6865 16.3586 55.6865 17.0652C55.6865 17.8639 55.9707 18.5013 56.539 18.9774C57.1226 19.4536 57.8983 19.6917 58.8659 19.6917Z" fill="white"/>
<path d="M74.7541 20.7284C74.0476 20.7284 73.4409 20.5979 72.934 20.3368C72.4271 20.0756 72.0355 19.6993 71.759 19.2078C71.4825 18.7163 71.3443 18.125 71.3443 17.4338V5.29203H67.2202V3.90967H72.8649V17.4338C72.8649 18.0482 73.0262 18.5243 73.3487 18.8622C73.6866 19.1848 74.1551 19.3461 74.7541 19.3461H78.786V20.7284H74.7541Z" fill="white"/>
<path d="M84.4677 24.8755L86.3339 19.876L81.6339 8.05676H83.3158L86.38 16.0284C86.5182 16.397 86.6565 16.781 86.7947 17.1804C86.933 17.5797 87.0405 17.8946 87.1173 18.125C87.1941 17.8946 87.2939 17.5797 87.4168 17.1804C87.555 16.7656 87.6856 16.374 87.8085 16.0053L90.6884 8.05676H92.3242L86.0575 24.8755H84.4677Z" fill="white"/>
<path d="M96.1397 20.7284V19.2539L103.443 9.43912H96.324V8.05676H105.171V9.53128L97.7755 19.3461H105.448V20.7284H96.1397Z" fill="white"/>
<path d="M114.631 20.9588C113.664 20.9588 112.827 20.7668 112.12 20.3828C111.414 19.9988 110.868 19.4536 110.484 18.747C110.116 18.0405 109.931 17.2111 109.931 16.2588V12.5264C109.931 11.5741 110.116 10.7524 110.484 10.0612C110.868 9.35464 111.414 8.80938 112.12 8.42539C112.827 8.02604 113.664 7.82637 114.631 7.82637C115.584 7.82637 116.405 8.02604 117.097 8.42539C117.803 8.80938 118.341 9.35464 118.709 10.0612C119.093 10.7524 119.285 11.5741 119.285 12.5264V14.7382H111.429V16.2588C111.429 17.3186 111.705 18.148 112.258 18.747C112.811 19.3461 113.602 19.6456 114.631 19.6456C115.461 19.6456 116.137 19.4689 116.659 19.1157C117.196 18.747 117.557 18.2325 117.742 17.572H119.262C119.063 18.6165 118.548 19.4459 117.719 20.0603C116.905 20.6593 115.875 20.9588 114.631 20.9588ZM117.788 13.7014V12.5264C117.788 11.4666 117.511 10.6372 116.958 10.0381C116.421 9.42376 115.645 9.11657 114.631 9.11657C113.602 9.11657 112.811 9.41608 112.258 10.0151C111.705 10.6141 111.429 11.4512 111.429 12.5264V13.5171H117.995L117.788 13.7014Z" fill="white"/>
<path d="M124.299 20.7284V8.05676H125.796V10.3377H126.142L125.566 11.7431C125.581 10.5143 125.904 9.55432 126.534 8.86314C127.179 8.17196 128.07 7.82637 129.206 7.82637C130.558 7.82637 131.625 8.24107 132.409 9.07049C133.192 9.89991 133.584 11.0288 133.584 12.4573V13.1715H131.994V12.5264C131.994 11.4512 131.725 10.6141 131.188 10.0151C130.65 9.41608 129.89 9.11657 128.907 9.11657C127.939 9.11657 127.179 9.41608 126.626 10.0151C126.088 10.6141 125.819 11.4512 125.819 12.5264V20.7284H124.299Z" fill="white"/>
<defs>
<linearGradient id="paint0_linear_128_47" x1="10.8495" y1="22.2187" x2="10.8495" y2="0.534617" gradientUnits="userSpaceOnUse">
<stop stop-color="#108DDA"/>
<stop offset="1" stop-color="#3DD7F4"/>
</linearGradient>
</defs>
</svg>
